# This file uses centimeters as units for non-parametric coordinates.

mtllib Tree.mtl
g default
v -0.432666 -0.000000 -1.112502
v -1.624283 -0.000000 -1.606086
v -2.815900 -0.000000 -1.112502
v -3.309484 -0.000000 0.079115
v -2.815900 -0.000000 1.270732
v -1.624283 -0.000000 1.764316
v -0.432666 -0.000000 1.270732
v 0.060918 -0.000000 0.079115
v -0.432666 6.039247 -1.112502
v -1.624283 6.039247 -1.606086
v -2.815900 6.039247 -1.112502
v -3.309484 6.039247 0.079115
v -2.815900 6.039247 1.270732
v -1.624283 6.039247 1.764316
v -0.432666 6.039247 1.270732
v 0.060918 6.039247 0.079115
v -1.624283 -0.000000 0.079115
v 0.821125 7.175203 -2.366293
v -1.624283 7.175203 -3.379211
v -4.069691 7.175203 -2.366294
v -5.082610 7.175203 0.079114
v -4.069691 7.175203 2.524523
v -1.624283 7.175203 3.537442
v 0.821125 7.175203 2.524523
v 1.834044 7.175203 0.079115
v -1.624283 9.360483 -4.570716
v -6.274117 9.360483 0.079114
v -1.624283 9.360483 4.728947
v 3.025550 9.360483 0.079115
v 0.721214 12.177228 -2.266382
v -1.624283 12.177228 -3.237914
v -3.969780 12.177228 -2.266382
v -4.941314 12.177228 0.079114
v -3.969780 12.177228 2.424612
v -1.624283 12.177228 3.396144
v 0.721214 12.177228 2.424612
v 1.692747 12.177228 0.079115
v -0.977375 14.869484 -0.567792
v -1.624283 14.869484 -0.835749
v -2.271190 14.869483 -0.567792
v -2.539148 14.869484 0.079115
v -2.271190 14.869484 0.726022
v -1.624283 14.869484 0.993979
v -0.977375 14.869484 0.726022
v -0.709418 14.869484 0.079115
v -1.090767 6.472917 4.825468
v 1.731897 6.472917 3.435295
v 2.767102 9.320069 4.470500
v -1.083842 9.321979 6.033693
v 3.122070 6.472917 0.612631
v 4.330296 9.321979 0.619557
v 1.655630 12.802506 3.359029
v -1.076916 12.802506 4.717610
v 3.014213 12.802506 0.626482
v -6.041237 6.652518 0.476190
v -4.747543 6.652519 3.202375
v -5.733472 9.330404 4.188304
v -7.245188 9.331827 0.481344
v -2.021358 6.652519 4.496069
v -2.026513 9.331827 5.700018
v -4.665229 12.642600 3.120062
v -5.924830 12.642600 0.486499
v -2.031667 12.642600 4.379660
v -1.958066 6.735833 -4.185039
v -4.639496 6.735833 -2.936099
v -5.602567 9.335199 -3.899170
v -1.962399 9.336394 -5.387004
v -5.888436 6.735833 -0.254669
v -7.090403 9.336394 -0.259002
v -4.554377 12.568421 -2.850980
v -1.966732 12.568421 -4.064661
v -5.768061 12.568421 -0.263335
v 1.777123 6.438043 -3.322292
v -1.064274 6.438043 -4.731198
v -1.057004 9.320068 -5.940253
v 2.821897 9.318061 -4.367066
v 3.186031 6.438043 -0.480895
v 4.395087 9.320068 -0.488164
v -1.049735 12.833558 -4.625001
v 1.702031 12.833558 -3.247200
v 3.079834 12.833558 -0.495434
v 1.084987 12.960827 -3.643365
v -1.624283 12.960827 -4.614896
v -1.624283 15.653083 -2.212732
v -0.613603 15.653083 -1.944775
v -4.333553 12.960827 -3.643365
v -2.634963 15.653083 -1.944775
v -4.899633 13.006890 -2.651540
v -5.871167 13.006890 0.079114
v -3.469002 15.699146 0.079115
v -3.201044 15.699145 -0.952950
v -4.899633 13.006890 2.809769
v -3.201044 15.699146 1.111180
v -4.415389 13.137109 3.500411
v -1.624283 13.137110 4.471943
v -1.624283 15.829365 2.069778
v -2.716799 15.829364 1.801821
v 1.166823 13.137110 3.500411
v -0.531767 15.829366 1.801820
v 2.200336 13.496975 3.037282
v 3.171869 13.496974 0.079115
v 0.769704 16.189232 0.079115
v 0.501747 16.189232 1.338692
v 2.200336 13.496974 -2.879053
v 0.501747 16.189230 -1.180463
v -0.977375 16.532184 -0.567792
v -1.624284 16.532184 -0.835749
v -1.624283 16.532184 0.079115
v -2.271191 16.532182 -0.567792
v -2.539148 16.532184 0.079115
v -2.271190 16.532184 0.726022
v -1.624283 16.532184 0.993979
v -0.977375 16.532184 0.726022
v -0.709418 16.532184 0.079115
vt 0.610485 0.045765
vt 0.500000 0.000000
vt 0.389515 0.045765
vt 0.343750 0.156250
vt 0.389515 0.266735
vt 0.500000 0.312500
vt 0.610485 0.266735
vt 0.656250 0.156250
vt 0.375000 0.312500
vt 0.406250 0.312500
vt 0.437500 0.312500
vt 0.468750 0.312500
vt 0.500000 0.312500
vt 0.531250 0.312500
vt 0.562500 0.312500
vt 0.593750 0.312500
vt 0.625000 0.312500
vt 0.375000 0.688440
vt 0.406250 0.688440
vt 0.437500 0.688440
vt 0.468750 0.688440
vt 0.500000 0.688440
vt 0.531250 0.688440
vt 0.562500 0.688440
vt 0.593750 0.688440
vt 0.625000 0.688440
vt 0.610485 0.733265
vt 0.500000 0.687500
vt 0.389515 0.733265
vt 0.343750 0.843750
vt 0.389515 0.954235
vt 0.500000 1.000000
vt 0.610485 0.954235
vt 0.656250 0.843750
vt 0.500000 0.150000
vt 0.500000 0.837500
vt 0.610485 0.954235
vt 0.500000 1.000000
vt 0.389515 0.954235
vt 0.343750 0.843750
vt 0.389515 0.733265
vt 0.500000 0.687500
vt 0.610485 0.733265
vt 0.656250 0.843750
vt 0.610485 0.954235
vt 0.500000 1.000000
vt 0.389515 0.954235
vt 0.343750 0.843750
vt 0.389515 0.733265
vt 0.500000 0.687500
vt 0.610485 0.733265
vt 0.656250 0.843750
vt 0.610485 0.954235
vt 0.500000 1.000000
vt 0.389515 0.954235
vt 0.343750 0.843750
vt 0.389515 0.733265
vt 0.500000 0.687500
vt 0.610485 0.733265
vt 0.656250 0.843750
vt 0.610485 0.954235
vt 0.500000 1.000000
vt 0.389515 0.954235
vt 0.343750 0.843750
vt 0.389515 0.733265
vt 0.500000 0.687500
vt 0.610485 0.733265
vt 0.656250 0.843750
vt 0.500000 0.687500
vt 0.610485 0.733265
vt 0.500000 0.687500
vt 0.656250 0.843750
vt 0.656250 0.843750
vt 0.610485 0.733265
vt 0.500000 0.687500
vt 0.656250 0.843750
vt 0.343750 0.843750
vt 0.389515 0.733265
vt 0.343750 0.843750
vt 0.500000 0.687500
vt 0.500000 0.687500
vt 0.389515 0.733265
vt 0.343750 0.843750
vt 0.500000 0.687500
vt 0.500000 1.000000
vt 0.389515 0.954235
vt 0.500000 1.000000
vt 0.343750 0.843750
vt 0.343750 0.843750
vt 0.389515 0.954235
vt 0.500000 1.000000
vt 0.343750 0.843750
vt 0.610485 0.954235
vt 0.500000 1.000000
vt 0.500000 1.000000
vt 0.656250 0.843750
vt 0.656250 0.843750
vt 0.500000 1.000000
vt 0.610485 0.954235
vt 0.656250 0.843750
vt 0.610485 0.954235
vt 0.500000 1.000000
vt 0.500000 1.000000
vt 0.610485 0.954235
vt 0.389515 0.954235
vt 0.389515 0.954235
vt 0.389515 0.954235
vt 0.343750 0.843750
vt 0.343750 0.843750
vt 0.389515 0.954235
vt 0.389515 0.733265
vt 0.389515 0.733265
vt 0.389515 0.733265
vt 0.500000 0.687500
vt 0.500000 0.687500
vt 0.389515 0.733265
vt 0.610485 0.733265
vt 0.610485 0.733265
vt 0.610485 0.733265
vt 0.656250 0.843750
vt 0.656250 0.843750
vt 0.610485 0.733265
vt 0.610485 0.954235
vt 0.610485 0.954235
vt 0.610485 0.954235
vt 0.500000 1.000000
vt 0.389515 0.954235
vt 0.343750 0.843750
vt 0.389515 0.733265
vt 0.500000 0.687500
vt 0.610485 0.733265
vt 0.656250 0.843750
vn 0.382683 0.000000 -0.923880
vn 0.382683 0.000000 -0.923880
vn 0.358728 -0.348246 -0.866048
vn 0.358728 -0.348246 -0.866048
vn -0.382683 0.000000 -0.923880
vn -0.382683 0.000000 -0.923880
vn -0.358728 -0.348246 -0.866048
vn -0.358728 -0.348246 -0.866048
vn -0.923880 0.000000 -0.382683
vn -0.923880 0.000000 -0.382683
vn -0.866048 -0.348246 -0.358728
vn -0.866048 -0.348246 -0.358728
vn -0.923880 0.000000 0.382683
vn -0.923880 0.000000 0.382683
vn -0.866048 -0.348246 0.358728
vn -0.866048 -0.348246 0.358728
vn -0.382683 0.000000 0.923880
vn -0.382683 0.000000 0.923880
vn -0.358728 -0.348246 0.866048
vn -0.358728 -0.348246 0.866048
vn 0.382683 0.000000 0.923880
vn 0.382683 0.000000 0.923880
vn 0.358728 -0.348246 0.866048
vn 0.358728 -0.348246 0.866048
vn 0.923880 0.000000 0.382683
vn 0.923880 0.000000 0.382683
vn 0.866048 -0.348246 0.358729
vn 0.866048 -0.348246 0.358729
vn 0.923880 0.000000 -0.382683
vn 0.923880 0.000000 -0.382683
vn 0.866048 -0.348246 -0.358729
vn 0.866048 -0.348246 -0.358729
vn 0.000000 -1.000000 0.000000
vn 0.000000 -1.000000 0.000000
vn 0.000000 -1.000000 0.000000
vn 0.000000 -1.000000 0.000000
vn 0.000000 -1.000000 0.000000
vn 0.000000 -1.000000 0.000000
vn 0.000000 -1.000000 0.000000
vn 0.000000 -1.000000 0.000000
vn 0.000000 -1.000000 0.000000
vn 0.000000 1.000000 0.000000
vn -0.000001 1.000000 0.000001
vn -0.000000 1.000000 -0.000000
vn -0.000001 1.000000 -0.000000
vn 0.000000 1.000000 -0.000002
vn 0.000000 1.000000 0.000000
vn 0.000000 1.000000 -0.000000
vn 0.000000 1.000000 -0.000000
vn 0.000000 1.000000 0.000000
vn 0.218067 -0.821758 -0.526460
vn 0.218067 -0.821758 -0.526460
vn -0.218066 -0.821758 -0.526461
vn -0.218066 -0.821758 -0.526461
vn -0.526460 -0.821758 -0.218067
vn -0.526460 -0.821758 -0.218067
vn -0.526460 -0.821758 0.218067
vn -0.526460 -0.821758 0.218067
vn -0.218067 -0.821758 0.526461
vn -0.218067 -0.821758 0.526461
vn 0.218067 -0.821758 0.526460
vn 0.218067 -0.821758 0.526460
vn 0.526460 -0.821758 0.218067
vn 0.526460 -0.821758 0.218067
vn 0.526460 -0.821758 -0.218067
vn 0.526460 -0.821758 -0.218067
vn 0.372302 -0.396256 -0.839269
vn 0.372302 -0.396256 -0.839269
vn 0.406116 0.013772 -0.913718
vn 0.406112 0.014741 -0.913704
vn -0.361416 -0.414901 -0.835006
vn -0.361416 -0.414901 -0.835006
vn -0.397595 0.018400 -0.917377
vn -0.397599 0.017704 -0.917389
vn -0.835006 -0.414901 -0.361417
vn -0.835006 -0.414901 -0.361416
vn -0.917388 0.017703 -0.397600
vn -0.917376 0.018400 -0.397595
vn -0.836353 -0.409336 0.364632
vn -0.836354 -0.409336 0.364632
vn -0.916309 0.017307 0.400098
vn -0.916322 0.016522 0.400102
vn -0.364632 -0.409336 0.836354
vn -0.364632 -0.409336 0.836354
vn -0.400102 0.016522 0.916322
vn -0.400097 0.017307 0.916309
vn 0.371111 -0.398270 0.838843
vn 0.371111 -0.398270 0.838843
vn 0.405174 0.015136 0.914114
vn 0.405178 0.014193 0.914128
vn 0.838843 -0.398270 0.371111
vn 0.838843 -0.398270 0.371111
vn 0.914128 0.014193 0.405178
vn 0.914114 0.015136 0.405174
vn 0.839268 -0.396257 -0.372303
vn 0.839268 -0.396257 -0.372303
vn 0.913704 0.014741 -0.406113
vn 0.913717 0.013772 -0.406117
vn 0.380065 0.355927 -0.853737
vn 0.380065 0.355927 -0.853737
vn -0.369471 0.371891 -0.851580
vn -0.369471 0.371892 -0.851580
vn -0.851579 0.371892 -0.369472
vn -0.851579 0.371892 -0.369472
vn -0.852265 0.367179 0.372591
vn -0.852265 0.367180 0.372591
vn -0.372590 0.367180 0.852265
vn -0.372590 0.367180 0.852265
vn 0.378900 0.357676 0.853523
vn 0.378900 0.357676 0.853523
vn 0.853523 0.357676 0.378901
vn 0.853523 0.357676 0.378901
vn 0.853737 0.355927 -0.380065
vn 0.853737 0.355927 -0.380065
vn 0.244171 0.635119 -0.732806
vn 0.244171 0.635119 -0.732806
vn 0.244171 0.635119 -0.732806
vn 0.244171 0.635119 -0.732806
vn -0.244171 0.635119 -0.732806
vn -0.244171 0.635119 -0.732806
vn -0.244171 0.635119 -0.732806
vn -0.244171 0.635119 -0.732806
vn -0.733708 0.635025 -0.241694
vn -0.733708 0.635025 -0.241694
vn -0.733708 0.635025 -0.241694
vn -0.733708 0.635025 -0.241694
vn -0.733709 0.635024 0.241694
vn -0.733709 0.635024 0.241694
vn -0.733709 0.635024 0.241694
vn -0.733709 0.635024 0.241694
vn -0.234945 0.634746 0.736138
vn -0.234945 0.634746 0.736138
vn -0.234945 0.634746 0.736138
vn -0.234945 0.634746 0.736138
vn 0.234944 0.634746 0.736138
vn 0.234944 0.634746 0.736138
vn 0.234944 0.634746 0.736138
vn 0.234944 0.634746 0.736138
vn 0.742030 0.633908 0.218064
vn 0.742030 0.633908 0.218064
vn 0.742030 0.633908 0.218064
vn 0.742030 0.633908 0.218064
vn 0.742030 0.633908 -0.218064
vn 0.742030 0.633908 -0.218064
vn 0.742030 0.633908 -0.218064
vn 0.742030 0.633908 -0.218064
vn -0.197265 -0.879817 -0.432445
vn -0.319301 -0.892241 -0.319301
vn -0.319301 -0.892241 -0.319301
vn -0.197265 -0.879817 -0.432445
vn -0.937106 0.009752 0.348909
vn -0.927304 -0.160021 0.338380
vn -0.927304 -0.160021 0.338380
vn -0.937130 0.008672 0.348874
vn -0.432445 -0.879817 -0.197265
vn -0.432445 -0.879817 -0.197265
vn 0.338381 -0.160021 -0.927304
vn 0.348909 0.009752 -0.937106
vn 0.348874 0.008672 -0.937129
vn 0.338381 -0.160021 -0.927304
vn -0.284461 0.915513 -0.284461
vn -0.176986 0.905487 -0.385706
vn -0.176986 0.905487 -0.385706
vn -0.284461 0.915513 -0.284461
vn -0.924945 0.148242 0.350001
vn -0.924945 0.148242 0.350001
vn 0.350002 0.148242 -0.924945
vn 0.350002 0.148242 -0.924945
vn -0.385707 0.905487 -0.176986
vn -0.385707 0.905487 -0.176986
vn 0.434543 -0.879551 -0.193813
vn 0.318831 -0.892577 -0.318831
vn 0.318831 -0.892577 -0.318831
vn 0.434543 -0.879551 -0.193813
vn -0.347954 0.010025 -0.937458
vn -0.336862 -0.164898 -0.927002
vn -0.336862 -0.164898 -0.927002
vn -0.347923 0.009074 -0.937479
vn 0.193813 -0.879551 -0.434543
vn 0.193813 -0.879551 -0.434543
vn 0.927002 -0.164898 0.336862
vn 0.937458 0.010025 0.347954
vn 0.937479 0.009074 0.347922
vn 0.927002 -0.164898 0.336862
vn 0.283996 0.915802 -0.283996
vn 0.387715 0.905258 -0.173737
vn 0.387715 0.905258 -0.173737
vn 0.283996 0.915802 -0.283996
vn -0.349076 0.151925 -0.924697
vn -0.349076 0.151925 -0.924697
vn 0.924697 0.151925 0.349076
vn 0.924697 0.151925 0.349076
vn 0.173736 0.905258 -0.387716
vn 0.173736 0.905258 -0.387716
vn 0.192154 -0.879418 0.435547
vn 0.318604 -0.892739 0.318604
vn 0.318604 -0.892739 0.318604
vn 0.192154 -0.879418 0.435547
vn 0.937628 0.010157 -0.347492
vn 0.926847 -0.167261 -0.336122
vn 0.926847 -0.167261 -0.336122
vn 0.937648 0.009284 -0.347463
vn 0.435546 -0.879418 0.192154
vn 0.435546 -0.879418 0.192154
vn -0.336123 -0.167261 0.926847
vn -0.347492 0.010157 0.937628
vn -0.347463 0.009283 0.937648
vn -0.336123 -0.167261 0.926847
vn 0.283771 0.915941 0.283771
vn 0.172172 0.905144 0.388679
vn 0.172172 0.905144 0.388679
vn 0.283771 0.915941 0.283771
vn 0.924573 0.153695 -0.348629
vn 0.924573 0.153695 -0.348629
vn -0.348630 0.153695 0.924573
vn -0.348630 0.153695 0.924573
vn 0.388679 0.905144 0.172172
vn 0.388680 0.905144 0.172172
vn -0.319390 -0.892178 0.319390
vn -0.197916 -0.879866 0.432048
vn -0.197916 -0.879866 0.432048
vn -0.319389 -0.892177 0.319390
vn -0.927357 -0.159107 -0.338664
vn -0.937039 0.009700 -0.349089
vn -0.937064 0.008601 -0.349053
vn -0.927357 -0.159107 -0.338664
vn -0.432048 -0.879866 0.197916
vn -0.432048 -0.879866 0.197916
vn 0.349089 0.009700 0.937039
vn 0.338664 -0.159107 0.927357
vn 0.338664 -0.159107 0.927357
vn 0.349053 0.008601 0.937063
vn -0.924990 0.147547 -0.350175
vn -0.924990 0.147547 -0.350175
vn -0.177598 0.905528 0.385328
vn -0.284550 0.915458 0.284550
vn -0.284550 0.915458 0.284550
vn -0.177598 0.905528 0.385328
vn -0.385328 0.905528 0.177599
vn -0.385328 0.905528 0.177599
vn 0.350176 0.147547 0.924990
vn 0.350176 0.147547 0.924990
vn 0.180067 -0.864954 -0.468434
vn -0.000000 -0.879327 -0.476218
vn -0.000000 -0.879327 -0.476218
vn 0.180067 -0.864954 -0.468434
vn -0.000001 0.877782 0.479060
vn -0.153060 0.867439 0.473416
vn -0.153060 0.867439 0.473416
vn -0.000001 0.877782 0.479061
vn 0.868097 0.296538 0.398086
vn 0.868097 0.296538 0.398086
vn 0.868097 0.296538 0.398086
vn 0.868097 0.296538 0.398086
vn -0.180067 -0.864954 -0.468434
vn -0.180067 -0.864954 -0.468434
vn -0.868097 0.296538 0.398086
vn -0.868097 0.296538 0.398086
vn -0.868097 0.296538 0.398086
vn -0.868097 0.296538 0.398086
vn 0.153059 0.867439 0.473416
vn 0.153059 0.867439 0.473416
vn -0.619022 -0.748776 -0.236952
vn -0.637168 -0.770725 0.000000
vn -0.637168 -0.770725 0.000000
vn -0.619022 -0.748776 -0.236952
vn 0.641808 0.766865 0.000000
vn 0.628750 0.751263 0.200692
vn 0.628750 0.751263 0.200692
vn 0.641808 0.766865 -0.000000
vn 0.519776 0.196593 -0.831375
vn 0.519776 0.196593 -0.831375
vn 0.519776 0.196593 -0.831375
vn 0.519776 0.196593 -0.831375
vn -0.619022 -0.748776 0.236952
vn -0.619022 -0.748776 0.236952
vn 0.519776 0.196593 0.831375
vn 0.519776 0.196593 0.831375
vn 0.519776 0.196593 0.831375
vn 0.519776 0.196593 0.831375
vn 0.628750 0.751263 -0.200692
vn 0.628750 0.751263 -0.200692
vn -0.234430 -0.748984 0.619730
vn 0.000000 -0.770454 0.637495
vn 0.000000 -0.770454 0.637495
vn -0.234430 -0.748984 0.619730
vn -0.000001 0.766183 -0.642622
vn 0.194220 0.751594 -0.630385
vn 0.194220 0.751594 -0.630385
vn -0.000001 0.766183 -0.642622
vn -0.831375 0.196593 -0.519776
vn -0.831375 0.196593 -0.519776
vn -0.831375 0.196593 -0.519776
vn -0.831375 0.196593 -0.519776
vn 0.234430 -0.748984 0.619730
vn 0.234430 -0.748984 0.619730
vn 0.831375 0.196593 -0.519776
vn 0.831375 0.196593 -0.519776
vn 0.831375 0.196593 -0.519776
vn 0.831375 0.196593 -0.519776
vn -0.194222 0.751593 -0.630385
vn -0.194222 0.751593 -0.630385
vn 0.621588 -0.749512 0.227727
vn 0.638361 -0.769737 0.000000
vn 0.638361 -0.769737 0.000000
vn 0.621588 -0.749512 0.227727
vn -0.644609 0.764512 -0.000000
vn -0.634280 0.752262 -0.178297
vn -0.634280 0.752262 -0.178297
vn -0.644609 0.764512 -0.000001
vn -0.519776 0.196593 0.831375
vn -0.519776 0.196593 0.831375
vn -0.519776 0.196593 0.831375
vn -0.519776 0.196593 0.831375
vn 0.621588 -0.749512 -0.227727
vn 0.621588 -0.749512 -0.227727
vn -0.519776 0.196593 -0.831375
vn -0.519776 0.196593 -0.831375
vn -0.519776 0.196593 -0.831375
vn -0.519776 0.196593 -0.831375
vn -0.634280 0.752263 0.178296
vn -0.634280 0.752263 0.178296
vn 0.382682 0.000000 -0.923880
vn 0.382682 0.000000 -0.923880
vn 0.382682 0.000000 -0.923880
vn 0.382682 0.000000 -0.923880
vn -0.382682 -0.000000 -0.923880
vn -0.382682 -0.000000 -0.923880
vn -0.382682 -0.000000 -0.923880
vn -0.382682 -0.000000 -0.923880
vn -0.923880 -0.000000 -0.382683
vn -0.923880 -0.000000 -0.382683
vn -0.923880 -0.000000 -0.382683
vn -0.923880 -0.000000 -0.382683
vn -0.923880 0.000000 0.382684
vn -0.923880 0.000000 0.382684
vn -0.923880 0.000000 0.382684
vn -0.923880 0.000000 0.382684
vn -0.382683 0.000000 0.923880
vn -0.382683 0.000000 0.923880
vn -0.382683 0.000000 0.923880
vn -0.382683 0.000000 0.923880
vn 0.382683 0.000000 0.923880
vn 0.382683 0.000000 0.923880
vn 0.382683 0.000000 0.923880
vn 0.382683 0.000000 0.923880
vn 0.923880 0.000000 0.382683
vn 0.923880 0.000000 0.382683
vn 0.923880 0.000000 0.382683
vn 0.923880 0.000000 0.382683
vn 0.923880 0.000000 -0.382683
vn 0.923880 0.000000 -0.382683
vn 0.923880 0.000000 -0.382683
vn 0.923880 0.000000 -0.382683
s 1
g pCylinder1
usemtl lambert2SG
f 1/9/1 2/10/2 10/19/3 9/18/4
s 2
f 2/10/5 3/11/6 11/20/7 10/19/8
s 3
f 3/11/9 4/12/10 12/21/11 11/20/12
s 4
f 4/12/13 5/13/14 13/22/15 12/21/16
s 5
f 5/13/17 6/14/18 14/23/19 13/22/20
s 6
f 6/14/21 7/15/22 15/24/23 14/23/24
s 7
f 7/15/25 8/16/26 16/25/27 15/24/28
s 8
f 8/16/29 1/17/30 9/26/31 16/25/32
s 9
f 2/2/33 1/1/34 17/35/35
f 3/3/36 2/2/33 17/35/35
f 4/4/37 3/3/36 17/35/35
f 5/5/38 4/4/37 17/35/35
f 6/6/39 5/5/38 17/35/35
f 7/7/40 6/6/39 17/35/35
f 8/8/41 7/7/40 17/35/35
f 1/1/34 8/8/41 17/35/35
s 10
usemtl blinn1SG
f 106/125/42 107/126/43 108/36/44
f 107/126/43 109/127/45 108/36/44
f 109/127/45 110/128/46 108/36/44
f 110/128/46 111/129/47 108/36/44
f 111/129/47 112/130/48 108/36/44
f 112/130/48 113/131/49 108/36/44
f 113/131/49 114/132/50 108/36/44
f 114/132/50 106/125/42 108/36/44
s 1
f 9/33/4 10/32/3 19/38/51 18/37/52
s 2
f 10/32/8 11/31/7 20/39/53 19/38/54
s 3
f 11/31/12 12/30/11 21/40/55 20/39/56
s 4
f 12/30/16 13/29/15 22/41/57 21/40/58
s 5
f 13/29/20 14/28/19 23/42/59 22/41/60
s 6
f 14/28/24 15/27/23 24/43/61 23/42/62
s 7
f 15/27/28 16/34/27 25/44/63 24/43/64
s 8
f 16/34/32 9/33/31 18/37/65 25/44/66
s 11
f 73/93/67 74/94/68 75/95/69 76/45/70
s 12
f 64/85/71 65/86/72 66/47/73 67/87/74
s 13
f 65/86/75 68/88/76 69/89/77 66/47/78
s 14
f 55/77/79 56/78/80 57/49/81 58/79/82
s 15
f 56/78/83 59/80/84 60/81/85 57/49/86
s 16
f 46/69/87 47/70/88 48/51/89 49/71/90
s 17
f 47/70/91 50/72/92 51/73/93 48/51/94
s 18
f 77/96/95 73/93/96 76/45/97 78/97/98
s 11
f 76/45/70 75/95/69 79/98/99 80/99/100
s 12
f 67/87/74 66/47/73 70/90/101 71/91/102
s 13
f 66/47/78 69/89/77 72/92/103 70/90/104
s 14
f 58/79/82 57/49/81 61/82/105 62/83/106
s 15
f 57/49/86 60/81/85 63/84/107 61/82/108
s 16
f 49/71/90 48/51/89 52/74/109 53/75/110
s 17
f 48/51/94 51/73/93 54/76/111 52/74/112
s 18
f 78/97/98 76/45/97 80/99/113 81/100/114
s off
f 82/101/115 83/102/116 84/103/117 85/104/118
f 83/102/119 86/105/120 87/106/121 84/103/122
f 88/107/123 89/108/124 90/109/125 91/110/126
f 89/108/127 92/111/128 93/112/129 90/109/130
f 94/113/131 95/114/132 96/115/133 97/116/134
f 95/114/135 98/117/136 99/118/137 96/115/138
f 100/119/139 101/120/140 102/121/141 103/122/142
f 101/120/143 104/123/144 105/124/145 102/121/146
s 19
f 23/42/147 24/43/148 47/70/149 46/69/150
s 20
f 28/50/151 23/42/152 46/69/153 49/71/154
s 19
f 24/43/148 25/44/155 50/72/156 47/70/149
s 21
f 25/44/157 29/52/158 51/73/159 50/72/160
s 22
f 36/59/161 35/58/162 53/75/163 52/74/164
s 20
f 35/58/165 28/50/151 49/71/154 53/75/166
s 21
f 29/52/158 37/60/167 54/76/168 51/73/159
s 22
f 37/60/169 36/59/161 52/74/164 54/76/170
s 23
f 21/40/171 22/41/172 56/78/173 55/77/174
s 24
f 27/48/175 21/40/176 55/77/177 58/79/178
s 23
f 22/41/172 23/42/179 59/80/180 56/78/173
s 25
f 23/42/181 28/50/182 60/81/183 59/80/184
s 26
f 34/57/185 33/56/186 62/83/187 61/82/188
s 24
f 33/56/189 27/48/175 58/79/178 62/83/190
s 25
f 28/50/182 35/58/191 63/84/192 60/81/183
s 26
f 35/58/193 34/57/185 61/82/188 63/84/194
s 27
f 19/38/195 20/39/196 65/86/197 64/85/198
s 28
f 26/46/199 19/38/200 64/85/201 67/87/202
s 27
f 20/39/196 21/40/203 68/88/204 65/86/197
s 29
f 21/40/205 27/48/206 69/89/207 68/88/208
s 30
f 32/55/209 31/54/210 71/91/211 70/90/212
s 28
f 31/54/213 26/46/199 67/87/202 71/91/214
s 29
f 27/48/206 33/56/215 72/92/216 69/89/207
s 30
f 33/56/217 32/55/209 70/90/212 72/92/218
s 31
f 18/37/219 19/38/220 74/94/221 73/93/222
s 32
f 19/38/223 26/46/224 75/95/225 74/94/226
s 31
f 25/44/227 18/37/219 73/93/222 77/96/228
s 33
f 29/52/229 25/44/230 77/96/231 78/97/232
s 32
f 26/46/224 31/54/233 79/98/234 75/95/225
s 34
f 31/54/235 30/53/236 80/99/237 79/98/238
f 30/53/236 37/60/239 81/100/240 80/99/237
s 33
f 37/60/241 29/52/229 78/97/232 81/100/242
s 35
f 30/53/243 31/54/244 83/102/245 82/101/246
s 36
f 39/62/247 38/61/248 85/104/249 84/103/250
s off
f 38/61/251 30/53/252 82/101/253 85/104/254
s 35
f 31/54/244 32/55/255 86/105/256 83/102/245
s off
f 32/55/257 40/63/258 87/106/259 86/105/260
s 36
f 40/63/261 39/62/247 84/103/250 87/106/262
s 37
f 32/55/263 33/56/264 89/108/265 88/107/266
s 38
f 41/64/267 40/63/268 91/110/269 90/109/270
s off
f 40/63/271 32/55/272 88/107/273 91/110/274
s 37
f 33/56/264 34/57/275 92/111/276 89/108/265
s off
f 34/57/277 42/65/278 93/112/279 92/111/280
s 38
f 42/65/281 41/64/267 90/109/270 93/112/282
s 39
f 34/57/283 35/58/284 95/114/285 94/113/286
s 40
f 43/66/287 42/65/288 97/116/289 96/115/290
s off
f 42/65/291 34/57/292 94/113/293 97/116/294
s 39
f 35/58/284 36/59/295 98/117/296 95/114/285
s off
f 36/59/297 44/67/298 99/118/299 98/117/300
s 40
f 44/67/301 43/66/287 96/115/290 99/118/302
s 41
f 36/59/303 37/60/304 101/120/305 100/119/306
s 42
f 45/68/307 44/67/308 103/122/309 102/121/310
s off
f 44/67/311 36/59/312 100/119/313 103/122/314
s 41
f 37/60/304 30/53/315 104/123/316 101/120/305
s off
f 30/53/317 38/61/318 105/124/319 104/123/320
s 42
f 38/61/321 45/68/307 102/121/310 105/124/322
s off
f 38/61/323 39/62/324 107/126/325 106/125/326
f 39/62/327 40/63/328 109/127/329 107/126/330
f 40/63/331 41/64/332 110/128/333 109/127/334
f 41/64/335 42/65/336 111/129/337 110/128/338
f 42/65/339 43/66/340 112/130/341 111/129/342
f 43/66/343 44/67/344 113/131/345 112/130/346
f 44/67/347 45/68/348 114/132/349 113/131/350
f 45/68/351 38/61/352 106/125/353 114/132/354
