# This file uses centimeters as units for non-parametric coordinates.

mtllib Car.mtl
g default
v 6.405305 -0.000000 -19.004797
v 17.246193 -0.000000 -19.004797
v 6.405305 7.763969 -19.004797
v 17.246193 7.763969 -19.004797
v 7.961498 7.763969 -43.954003
v 15.690000 7.763969 -43.954003
v 7.961498 -0.000000 -43.954003
v 15.690000 -0.000000 -43.954003
v 19.217199 7.763968 -22.915234
v 4.434299 7.763968 -22.915234
v 6.405306 -0.000000 -22.915234
v 17.246193 -0.000000 -22.915234
v 17.095137 7.763969 -40.047192
v 6.556362 7.763969 -40.047192
v 7.961498 -0.000000 -40.047192
v 15.690000 -0.000000 -40.047192
v 17.246193 17.769352 -22.915234
v 6.405306 17.769352 -22.915234
v 13.945274 12.573044 -40.047192
v 9.706224 12.573044 -40.047192
v 15.690000 3.414328 -48.596176
v 7.961498 3.414328 -48.596176
v 4.767381 3.414328 -40.047192
v 1.924869 3.414328 -22.915234
v 6.405305 3.414328 -5.567112
v 17.246193 3.414328 -5.567112
v 21.726631 3.414328 -22.915234
v 18.884117 3.414328 -40.047192
v 17.985292 8.526328 -23.679680
v 5.666208 8.526328 -23.679680
v 16.342785 16.864147 -23.679680
v 7.308713 16.864147 -23.679680
v 18.353043 8.221963 -23.854717
v 16.485823 8.169673 -38.859501
v 13.743361 12.392701 -38.874706
v 16.660953 16.992344 -23.888569
v 4.980102 8.828549 -24.733205
v 6.652463 8.828549 -38.234619
v 6.533419 16.713622 -24.733205
v 9.134817 12.618500 -38.234619
vt 0.375000 0.000000
vt 0.625000 0.000000
vt 0.375000 0.250000
vt 0.625000 0.250000
vt 0.375000 0.500000
vt 0.625000 0.500000
vt 0.375000 0.750000
vt 0.625000 0.750000
vt 0.375000 1.000000
vt 0.625000 1.000000
vt 0.875000 0.000000
vt 0.875000 0.250000
vt 0.125000 0.000000
vt 0.125000 0.250000
vt 0.625000 0.289184
vt 0.664184 0.250000
vt 0.335816 0.250000
vt 0.375000 0.289184
vt 0.335816 0.000000
vt 0.375000 0.960816
vt 0.625000 0.960816
vt 0.664184 0.000000
vt 0.625000 0.460852
vt 0.835852 0.250000
vt 0.164148 0.250000
vt 0.375000 0.460852
vt 0.164148 0.000000
vt 0.375000 0.789148
vt 0.625000 0.789148
vt 0.835852 0.000000
vt 0.375000 0.289184
vt 0.625000 0.289184
vt 0.625000 0.460852
vt 0.375000 0.460852
vt 0.625000 0.640059
vt 0.875000 0.109941
vt 0.125000 0.109941
vt 0.375000 0.640059
vt 0.164148 0.109941
vt 0.335816 0.109941
vt 0.375000 0.109941
vt 0.625000 0.109941
vt 0.664184 0.109941
vt 0.835852 0.109941
vt 0.375000 0.289184
vt 0.625000 0.289184
vt 0.625000 0.289184
vt 0.375000 0.289184
vt 0.625000 0.289184
vt 0.625000 0.460852
vt 0.625000 0.460852
vt 0.625000 0.289184
vt 0.375000 0.460852
vt 0.375000 0.289184
vt 0.375000 0.289184
vt 0.375000 0.460852
vn 0.000000 0.000000 1.000000
vn 0.000000 0.000000 1.000000
vn 0.000000 0.951400 0.307958
vn 0.000000 0.951400 0.307958
vn 0.000000 1.000000 -0.000000
vn 0.000000 1.000000 -0.000000
vn 0.000000 1.000000 -0.000000
vn 0.000000 1.000000 -0.000000
vn 0.000000 0.729725 -0.683741
vn 0.000000 0.729725 -0.683741
vn 0.000000 0.000000 -1.000000
vn 0.000000 0.000000 -1.000000
vn 0.000000 -1.000000 0.000000
vn 0.000000 -1.000000 0.000000
vn 0.000000 -1.000000 0.000000
vn 0.000000 -1.000000 0.000000
vn 0.966471 0.008744 0.256626
vn 0.990753 -0.135116 0.012310
vn 0.856711 0.514817 0.031796
vn 0.774866 0.586759 0.235153
vn -0.990753 -0.135116 0.012310
vn -0.966471 0.008744 0.256626
vn -0.774866 0.586759 0.235153
vn -0.856711 0.514817 0.031796
vn -0.010652 0.956324 -0.292116
vn 0.000000 0.956950 -0.290253
vn 0.000000 0.956950 -0.290253
vn -0.009378 0.956405 -0.291895
vn -0.968273 -0.178507 -0.174878
vn -0.889912 0.416243 -0.186541
vn 0.000000 -1.000000 0.000000
vn 0.000000 -1.000000 0.000000
vn 0.968273 -0.178507 -0.174878
vn 0.889912 0.416243 -0.186541
vn 0.000000 1.000000 0.000000
vn 0.000000 1.000000 0.000000
vn 0.000000 1.000000 0.000000
vn 0.000000 1.000000 0.000000
vn -0.951282 -0.021558 -0.307567
vn -0.877565 0.353384 -0.324037
vn 0.000000 -1.000000 0.000000
vn 0.000000 -1.000000 0.000000
vn 0.951282 -0.021558 -0.307567
vn 0.877565 0.353384 -0.324037
vn 0.000000 0.000000 1.000000
vn 0.000000 0.000000 1.000000
vn 0.000000 0.000000 1.000000
vn 0.000000 0.000000 1.000000
vn 0.928065 0.315997 -0.197080
vn 0.928065 0.315997 -0.197080
vn 0.928065 0.315997 -0.197080
vn 0.928065 0.315997 -0.197080
vn 0.000000 0.000000 -1.000000
vn -0.218543 0.143142 -0.965272
vn -0.136822 0.089616 -0.986534
vn 0.000000 0.000000 -1.000000
vn -0.926929 0.320409 -0.195297
vn -0.926929 0.320409 -0.195297
vn -0.926929 0.320409 -0.195297
vn -0.926929 0.320409 -0.195297
vn 0.000000 -0.805571 -0.592499
vn 0.000000 -0.805571 -0.592499
vn -0.822544 -0.528138 -0.210930
vn -0.705341 -0.699420 -0.115347
vn -0.671289 -0.741194 -0.001410
vn -0.675557 -0.723429 0.142380
vn 0.000000 -0.969204 0.246261
vn 0.000000 -0.969204 0.246261
vn 0.675557 -0.723429 0.142380
vn 0.671289 -0.741194 -0.001410
vn 0.705341 -0.699420 -0.115347
vn 0.822544 -0.528138 -0.210930
vn 0.000000 0.708073 0.706140
vn 0.000000 0.708073 0.706140
vn 0.000000 0.708073 0.706140
vn 0.000000 0.708073 0.706140
vn -0.573430 -0.112963 0.811430
vn -0.573430 -0.112963 0.811430
vn -0.573430 -0.112963 0.811430
vn -0.573430 -0.112963 0.811430
vn 0.000000 -0.645207 0.764008
vn 0.000000 -0.645207 0.764008
vn 0.000000 -0.645207 0.764008
vn 0.000000 -0.645207 0.764008
vn 0.573430 -0.112962 0.811430
vn 0.573430 -0.112962 0.811430
vn 0.573430 -0.112962 0.811430
vn 0.573430 -0.112962 0.811430
vn 0.496757 0.865595 -0.063073
vn 0.496757 0.865595 -0.063073
vn 0.496757 0.865595 -0.063073
vn 0.496757 0.865595 -0.063073
vn 0.815035 0.532095 0.229332
vn 0.815035 0.532095 0.229332
vn 0.815035 0.532095 0.229332
vn 0.815035 0.532095 0.229332
vn 0.775994 -0.629360 0.041710
vn 0.775994 -0.629360 0.041710
vn 0.775994 -0.629360 0.041710
vn 0.775994 -0.629360 0.041710
vn 0.775764 0.150244 -0.612875
vn 0.775765 0.150244 -0.612875
vn 0.775764 0.150244 -0.612875
vn 0.775765 0.150244 -0.612875
vn -0.950853 0.286367 -0.117778
vn -0.950853 0.286367 -0.117778
vn -0.950853 0.286367 -0.117778
vn -0.950853 0.286367 -0.117778
vn -0.965392 0.190177 -0.178471
vn -0.965392 0.190177 -0.178471
vn -0.965392 0.190177 -0.178471
vn -0.965392 0.190177 -0.178471
vn -0.876878 0.386291 -0.286119
vn -0.876878 0.386291 -0.286119
vn -0.806082 0.527970 -0.267355
vn -0.806082 0.527970 -0.267355
s 1
g pCube1
usemtl blinn2SG
f 25/41/1 26/42/2 4/4/3 3/3/4
s off
usemtl blinn3SG
f 3/3/5 4/4/6 9/15/7 10/18/8
s 2
usemtl blinn2SG
f 5/5/9 6/6/10 21/35/11 22/38/12
s 3
f 11/20/13 12/21/14 2/10/15 1/9/16
s 4
f 26/42/17 27/43/18 9/16/19 4/4/20
s 5
f 24/40/21 25/41/22 3/3/23 10/17/24
s 6
usemtl blinn3SG
f 18/31/25 17/32/26 19/33/27 20/34/28
s 5
usemtl blinn2SG
f 23/39/29 24/40/21 10/17/24 14/25/30
s 3
f 15/28/31 16/29/32 12/21/14 11/20/13
s 4
f 9/16/19 27/43/18 28/44/33 13/24/34
s off
usemtl blinn3SG
f 14/26/35 13/23/36 6/6/37 5/5/38
s 5
usemtl blinn2SG
f 22/37/39 23/39/29 14/25/30 5/14/40
s 3
f 7/7/41 8/8/42 16/29/32 15/28/31
s 4
f 13/24/34 28/44/33 21/36/43 6/12/44
s off
usemtl blinn3SG
f 30/45/45 29/46/46 31/47/47 32/48/48
f 33/49/49 34/50/50 35/51/51 36/52/52
s 7
f 13/23/53 14/26/54 20/34/55 19/33/56
s off
f 38/53/57 37/54/58 39/55/59 40/56/60
s 2
usemtl blinn2SG
f 22/38/12 21/35/11 8/8/61 7/7/62
s 5
f 7/13/63 15/27/64 23/39/29 22/37/39
f 15/27/64 11/19/65 24/40/21 23/39/29
f 11/19/65 1/1/66 25/41/22 24/40/21
s 1
f 1/1/67 2/2/68 26/42/2 25/41/1
s 4
f 2/2/69 12/22/70 27/43/18 26/42/17
f 28/44/33 27/43/18 12/22/70 16/30/71
f 21/36/43 28/44/33 16/30/71 8/11/72
s off
usemtl blinn3SG
f 10/18/73 9/15/74 29/46/75 30/45/76
f 9/15/77 17/32/78 31/47/79 29/46/80
f 17/32/81 18/31/82 32/48/83 31/47/84
f 18/31/85 10/18/86 30/45/87 32/48/88
f 9/15/89 13/23/90 34/50/91 33/49/92
f 13/23/93 19/33/94 35/51/95 34/50/96
f 19/33/97 17/32/98 36/52/99 35/51/100
f 17/32/101 9/15/102 33/49/103 36/52/104
f 14/26/105 10/18/106 37/54/107 38/53/108
f 10/18/109 18/31/110 39/55/111 37/54/112
s 6
f 18/31/25 20/34/28 40/56/113 39/55/114
s 7
f 20/34/55 14/26/54 38/53/115 40/56/116
